<svg xmlns="http://www.w3.org/2000/svg" width="32" height="32" viewBox="0 0 32 32" fill="none">
  <path fill-rule="evenodd" clip-rule="evenodd" d="M31.5402 15.0179L25.1185 3.88379C24.6565 3.0522 23.7325 2.4978 22.7623 2.4978H9.96496C8.99477 2.4978 8.07077 3.006 7.60878 3.88379L1.23322 15.0179C0.771219 15.8495 0.771219 16.8659 1.23322 17.7437L7.65498 28.8778C8.11697 29.7094 9.04097 30.2638 10.0112 30.2638H22.8085C23.7787 30.2638 24.7027 29.7556 25.1647 28.8778L31.5402 17.7437C32.0022 16.8659 32.0022 15.8495 31.5402 15.0179ZM27.9366 17.4203L23.0395 25.9211C22.6699 26.5678 21.9769 26.9836 21.2377 26.9836H11.4896C10.7504 26.9836 10.0574 26.5678 9.68776 25.9211L4.83679 17.4203C4.4672 16.7735 4.4672 15.9881 4.83679 15.3413L9.68776 6.84057C10.0574 6.19378 10.7504 5.77798 11.4896 5.77798H21.2377C21.9769 5.77798 22.6699 6.19378 23.0395 6.84057L27.9366 15.3413C28.3062 15.9881 28.3062 16.7735 27.9366 17.4203Z" fill="white"/>
  <path fill-rule="evenodd" clip-rule="evenodd" d="M23.4644 18.6843C23.6415 18.3763 23.4191 17.9921 23.0639 17.9921H20.3451C20.1793 17.9921 20.0262 18.081 19.944 18.2249L18.9254 20.0074C18.7868 20.2384 18.5096 20.4232 18.2324 20.4232H14.5364C14.2592 20.4232 13.982 20.2846 13.8434 20.0074L12.8248 18.2249C12.7426 18.081 12.5895 17.9921 12.4237 17.9921H9.70487C9.34962 17.9921 9.12729 18.3763 9.30433 18.6843L11.7644 22.9642C12.0416 23.4262 12.5036 23.7034 13.0118 23.7034H19.757C20.2652 23.7034 20.7272 23.4262 21.0044 22.9642L23.4644 18.6843ZM20.9582 9.7973L23.3852 14.0197C23.5622 14.3277 23.3399 14.7119 22.9847 14.7119H20.3122C20.1465 14.7119 19.9934 14.6231 19.9111 14.4792L18.9254 12.7541C18.7868 12.4769 18.5096 12.3383 18.2324 12.3383H14.5364C14.2592 12.3383 13.982 12.5231 13.8434 12.7541L12.8576 14.4792C12.7754 14.6231 12.6223 14.7119 12.4565 14.7119H9.7379C9.38265 14.7119 9.16032 14.3277 9.33736 14.0197L11.7644 9.7973C12.0416 9.3353 12.5036 9.05811 13.0118 9.05811H19.7108C20.219 9.05811 20.681 9.3353 20.9582 9.7973Z" fill="white"/>
</svg>
